<?xml version="1.0" encoding="UTF-8" standalone="no"?>
<!DOCTYPE svg PUBLIC "-//W3C//DTD SVG 1.1//EN"
 "http://www.w3.org/Graphics/SVG/1.1/DTD/svg11.dtd">
<!-- Generated by graphviz version 3.0.0 (20220226.1711)
 -->
<!-- Title: dependency_representation Pages: 1 -->
<svg width="4203pt" height="260pt"
 viewBox="0.00 0.00 4202.76 260.00" xmlns="http://www.w3.org/2000/svg" xmlns:xlink="http://www.w3.org/1999/xlink">
<g id="graph0" class="graph" transform="scale(1 1) rotate(0) translate(4 256)">
<title>dependency_representation</title>
<polygon fill="white" stroke="transparent" points="-4,4 -4,-256 4198.76,-256 4198.76,4 -4,4"/>
<!-- module64 -->
<g id="node1" class="node">
<title>module64</title>
<g id="a_node1"><a xlink:href="#ok" xlink:title="{&#39;$gn&#39;,module,64}">
<polygon fill="none" stroke="purple" points="1890.26,-108 1819.26,-108 1819.26,-72 1890.26,-72 1890.26,-108"/>
<text text-anchor="middle" x="1854.76" y="-85.6" font-family="Times,serif" font-size="18.00">gb_sets</text>
</a>
</g>
</g>
<!-- module63 -->
<g id="node2" class="node">
<title>module63</title>
<g id="a_node2"><a xlink:href="#ok" xlink:title="{&#39;$gn&#39;,module,63}">
<polygon fill="none" stroke="purple" points="2112.76,-108 2044.76,-108 2044.76,-72 2112.76,-72 2112.76,-108"/>
<text text-anchor="middle" x="2078.76" y="-85.6" font-family="Times,serif" font-size="18.00">orddict</text>
</a>
</g>
</g>
<!-- module62 -->
<g id="node3" class="node">
<title>module62</title>
<g id="a_node3"><a xlink:href="#ok" xlink:title="{&#39;$gn&#39;,module,62}">
<polygon fill="none" stroke="purple" points="2184.76,-108 2130.76,-108 2130.76,-72 2184.76,-72 2184.76,-108"/>
<text text-anchor="middle" x="2157.76" y="-85.6" font-family="Times,serif" font-size="18.00">dict</text>
</a>
</g>
</g>
<!-- module61 -->
<g id="node4" class="node">
<title>module61</title>
<g id="a_node4"><a xlink:href="#ok" xlink:title="{&#39;$gn&#39;,module,61}">
<polygon fill="none" stroke="purple" points="972.76,-108 918.76,-108 918.76,-72 972.76,-72 972.76,-108"/>
<text text-anchor="middle" x="945.76" y="-85.6" font-family="Times,serif" font-size="18.00">ets</text>
</a>
</g>
</g>
<!-- module60 -->
<g id="node5" class="node">
<title>module60</title>
<g id="a_node5"><a xlink:href="#ok" xlink:title="{&#39;$gn&#39;,module,60}">
<polygon fill="none" stroke="purple" points="1058.76,-108 990.76,-108 990.76,-72 1058.76,-72 1058.76,-108"/>
<text text-anchor="middle" x="1024.76" y="-85.6" font-family="Times,serif" font-size="18.00">ordsets</text>
</a>
</g>
</g>
<!-- module59 -->
<g id="node6" class="node">
<title>module59</title>
<g id="a_node6"><a xlink:href="#ok" xlink:title="{&#39;$gn&#39;,module,59}">
<polygon fill="none" stroke="purple" points="1134.76,-108 1076.76,-108 1076.76,-72 1134.76,-72 1134.76,-108"/>
<text text-anchor="middle" x="1105.76" y="-85.6" font-family="Times,serif" font-size="18.00">string</text>
</a>
</g>
</g>
<!-- module58 -->
<g id="node7" class="node">
<title>module58</title>
<g id="a_node7"><a xlink:href="#ok" xlink:title="{&#39;$gn&#39;,module,58}">
<polygon fill="none" stroke="purple" points="1264.76,-108 1152.76,-108 1152.76,-72 1264.76,-72 1264.76,-108"/>
<text text-anchor="middle" x="1208.76" y="-85.6" font-family="Times,serif" font-size="18.00">refusr_sq_lib</text>
</a>
</g>
</g>
<!-- module57 -->
<g id="node8" class="node">
<title>module57</title>
<g id="a_node8"><a xlink:href="#ok" xlink:title="{&#39;$gn&#39;,module,57}">
<polygon fill="none" stroke="purple" points="1420.26,-108 1283.26,-108 1283.26,-72 1420.26,-72 1420.26,-108"/>
<text text-anchor="middle" x="1351.76" y="-85.6" font-family="Times,serif" font-size="18.00">refusr_ac_parser</text>
</a>
</g>
</g>
<!-- module56 -->
<g id="node9" class="node">
<title>module56</title>
<g id="a_node9"><a xlink:href="#ok" xlink:title="{&#39;$gn&#39;,module,56}">
<polygon fill="none" stroke="purple" points="1567.26,-108 1438.26,-108 1438.26,-72 1567.26,-72 1567.26,-108"/>
<text text-anchor="middle" x="1502.76" y="-85.6" font-family="Times,serif" font-size="18.00">refusr_sq_lexer</text>
</a>
</g>
</g>
<!-- module55 -->
<g id="node10" class="node">
<title>module55</title>
<g id="a_node10"><a xlink:href="#ok" xlink:title="{&#39;$gn&#39;,module,55}">
<polygon fill="none" stroke="purple" points="1726.26,-108 1585.26,-108 1585.26,-72 1726.26,-72 1726.26,-108"/>
<text text-anchor="middle" x="1655.76" y="-85.6" font-family="Times,serif" font-size="18.00">refusr_sq_format</text>
</a>
</g>
</g>
<!-- module54 -->
<g id="node11" class="node">
<title>module54</title>
<g id="a_node11"><a xlink:href="#ok" xlink:title="{&#39;$gn&#39;,module,54}">
<polygon fill="none" stroke="purple" points="1800.76,-108 1744.76,-108 1744.76,-72 1800.76,-72 1800.76,-108"/>
<text text-anchor="middle" x="1772.76" y="-85.6" font-family="Times,serif" font-size="18.00">timer</text>
</a>
</g>
</g>
<!-- module51 -->
<g id="node12" class="node">
<title>module51</title>
<g id="a_node12"><a xlink:href="#ok" xlink:title="{&#39;$gn&#39;,module,51}">
<polygon fill="none" stroke="purple" points="1697.26,-180 1614.26,-180 1614.26,-144 1697.26,-144 1697.26,-180"/>
<text text-anchor="middle" x="1655.76" y="-157.6" font-family="Times,serif" font-size="18.00">refusr_sq</text>
</a>
</g>
</g>
<!-- module51&#45;&gt;module64 -->
<g id="edge10" class="edge">
<title>module51&#45;&gt;module64</title>
<g id="a_edge10"><a xlink:title="modcall">
<path fill="none" stroke="black" stroke-dasharray="5,2" d="M1697.38,-147.05C1726.31,-137.27 1765.98,-123.69 1809.33,-108.11"/>
<polygon fill="black" stroke="black" points="1810.71,-111.33 1818.93,-104.64 1808.34,-104.74 1810.71,-111.33"/>
</a>
</g>
</g>
<!-- module51&#45;&gt;module63 -->
<g id="edge7" class="edge">
<title>module51&#45;&gt;module63</title>
<g id="a_edge7"><a xlink:title="modcall">
<path fill="none" stroke="black" stroke-dasharray="5,2" d="M1697.44,-158.44C1766.27,-153.51 1907.87,-140.41 2034.84,-107.88"/>
<polygon fill="black" stroke="black" points="2035.94,-111.21 2044.73,-105.3 2034.17,-104.44 2035.94,-111.21"/>
</a>
</g>
</g>
<!-- module51&#45;&gt;module62 -->
<g id="edge8" class="edge">
<title>module51&#45;&gt;module62</title>
<g id="a_edge8"><a xlink:title="modcall">
<path fill="none" stroke="black" stroke-dasharray="5,2" d="M1697.46,-160.79C1778.37,-159.43 1961.9,-151.62 2120.66,-107.76"/>
<polygon fill="black" stroke="black" points="2121.92,-111.04 2130.6,-104.95 2120.02,-104.3 2121.92,-111.04"/>
</a>
</g>
</g>
<!-- module51&#45;&gt;module61 -->
<g id="edge12" class="edge">
<title>module51&#45;&gt;module61</title>
<g id="a_edge12"><a xlink:title="modcall">
<path fill="none" stroke="black" stroke-dasharray="5,2" d="M1614.12,-158.6C1482.05,-150.89 1076.18,-126.24 982.7,-107.33"/>
<polygon fill="black" stroke="black" points="983.42,-103.91 972.88,-105.06 981.83,-110.73 983.42,-103.91"/>
</a>
</g>
</g>
<!-- module51&#45;&gt;module60 -->
<g id="edge6" class="edge">
<title>module51&#45;&gt;module60</title>
<g id="a_edge6"><a xlink:title="modcall">
<path fill="none" stroke="black" stroke-dasharray="5,2" d="M1614.11,-158.8C1501.22,-152.59 1190.26,-133.85 1069.3,-107.89"/>
<polygon fill="black" stroke="black" points="1069.74,-104.41 1059.21,-105.61 1068.19,-111.23 1069.74,-104.41"/>
</a>
</g>
</g>
<!-- module51&#45;&gt;module59 -->
<g id="edge11" class="edge">
<title>module51&#45;&gt;module59</title>
<g id="a_edge11"><a xlink:title="modcall">
<path fill="none" stroke="black" stroke-dasharray="5,2" d="M1614.2,-158.4C1512.07,-151.75 1250.07,-133.03 1144.85,-107.68"/>
<polygon fill="black" stroke="black" points="1145.43,-104.22 1134.88,-105.13 1143.7,-111 1145.43,-104.22"/>
</a>
</g>
</g>
<!-- module51&#45;&gt;module58 -->
<g id="edge13" class="edge">
<title>module51&#45;&gt;module58</title>
<g id="a_edge13"><a xlink:title="modcall">
<path fill="none" stroke="black" stroke-dasharray="5,2" d="M1614.06,-156.77C1543.7,-149.29 1397.1,-132.19 1274.76,-108 1274.65,-107.98 1274.55,-107.96 1274.45,-107.94"/>
<polygon fill="black" stroke="black" points="1275.33,-104.55 1264.83,-105.91 1273.89,-111.4 1275.33,-104.55"/>
</a>
</g>
</g>
<!-- module51&#45;&gt;module57 -->
<g id="edge4" class="edge">
<title>module51&#45;&gt;module57</title>
<g id="a_edge4"><a xlink:title="modcall">
<path fill="none" stroke="black" stroke-dasharray="5,2" d="M1614.12,-151.41C1567.01,-140.56 1489.2,-122.65 1430.52,-109.14"/>
<polygon fill="black" stroke="black" points="1431.07,-105.67 1420.54,-106.84 1429.5,-112.49 1431.07,-105.67"/>
</a>
</g>
</g>
<!-- module51&#45;&gt;module56 -->
<g id="edge9" class="edge">
<title>module51&#45;&gt;module56</title>
<g id="a_edge9"><a xlink:title="modcall">
<path fill="none" stroke="black" stroke-dasharray="5,2" d="M1618.33,-143.88C1597.5,-134.35 1571.4,-122.41 1549.27,-112.28"/>
<polygon fill="black" stroke="black" points="1550.61,-109.05 1540.06,-108.07 1547.7,-115.41 1550.61,-109.05"/>
</a>
</g>
</g>
<!-- module51&#45;&gt;module55 -->
<g id="edge14" class="edge">
<title>module51&#45;&gt;module55</title>
<g id="a_edge14"><a xlink:title="modcall">
<path fill="none" stroke="black" stroke-dasharray="5,2" d="M1655.76,-143.7C1655.76,-135.98 1655.76,-126.71 1655.76,-118.11"/>
<polygon fill="black" stroke="black" points="1659.26,-118.1 1655.76,-108.1 1652.26,-118.1 1659.26,-118.1"/>
</a>
</g>
</g>
<!-- module51&#45;&gt;module54 -->
<g id="edge3" class="edge">
<title>module51&#45;&gt;module54</title>
<g id="a_edge3"><a xlink:title="modcall">
<path fill="none" stroke="black" stroke-dasharray="5,2" d="M1684.38,-143.88C1699.79,-134.66 1718.98,-123.17 1735.54,-113.26"/>
<polygon fill="black" stroke="black" points="1737.65,-116.08 1744.43,-107.95 1734.05,-110.08 1737.65,-116.08"/>
</a>
</g>
</g>
<!-- module18 -->
<g id="node37" class="node">
<title>module18</title>
<g id="a_node37"><a xlink:href="#ok" xlink:title="{&#39;$gn&#39;,module,18}">
<polygon fill="none" stroke="purple" points="2708.26,-108 2649.26,-108 2649.26,-72 2708.26,-72 2708.26,-108"/>
<text text-anchor="middle" x="2678.76" y="-85.6" font-family="Times,serif" font-size="18.00">io_lib</text>
</a>
</g>
</g>
<!-- module51&#45;&gt;module18 -->
<g id="edge2" class="edge">
<title>module51&#45;&gt;module18</title>
<g id="a_edge2"><a xlink:title="modcall">
<path fill="none" stroke="black" stroke-dasharray="5,2" d="M1697.52,-160.72C1858.15,-159.37 2436.86,-151.64 2638.98,-107.54"/>
<polygon fill="black" stroke="black" points="2639.92,-110.92 2648.89,-105.28 2638.36,-104.09 2639.92,-110.92"/>
</a>
</g>
</g>
<!-- module11 -->
<g id="node43" class="node">
<title>module11</title>
<g id="a_node43"><a xlink:href="#ok" xlink:title="{&#39;$gn&#39;,module,11}">
<polygon fill="none" stroke="purple" points="2256.76,-108 2202.76,-108 2202.76,-72 2256.76,-72 2256.76,-108"/>
<text text-anchor="middle" x="2229.76" y="-85.6" font-family="Times,serif" font-size="18.00">lists</text>
</a>
</g>
</g>
<!-- module51&#45;&gt;module11 -->
<g id="edge1" class="edge">
<title>module51&#45;&gt;module11</title>
<g id="a_edge1"><a xlink:title="modcall">
<path fill="none" stroke="black" stroke-dasharray="5,2" d="M1697.46,-161.69C1787.5,-162.17 2006.31,-157.85 2192.91,-107.66"/>
<polygon fill="black" stroke="black" points="2193.89,-111.02 2202.61,-105 2192.04,-104.27 2193.89,-111.02"/>
</a>
</g>
</g>
<!-- module8 -->
<g id="node46" class="node">
<title>module8</title>
<g id="a_node46"><a xlink:href="#ok" xlink:title="{&#39;$gn&#39;,module,8}">
<polygon fill="none" stroke="purple" points="2583.76,-36 2521.76,-36 2521.76,0 2583.76,0 2583.76,-36"/>
<text text-anchor="middle" x="2552.76" y="-13.6" font-family="Times,serif" font-size="18.00">erlang</text>
</a>
</g>
</g>
<!-- module51&#45;&gt;module8 -->
<g id="edge5" class="edge">
<title>module51&#45;&gt;module8</title>
<g id="a_edge5"><a xlink:title="modcall">
<path fill="none" stroke="black" stroke-dasharray="5,2" d="M1614.16,-158.42C1458.07,-148.71 915.82,-114.51 909.76,-108 898.85,-96.29 898.63,-83.49 909.76,-72 967.15,-12.72 2262.11,-17.3 2511.43,-18.73"/>
<polygon fill="black" stroke="black" points="2511.5,-22.23 2521.52,-18.79 2511.54,-15.23 2511.5,-22.23"/>
</a>
</g>
</g>
<!-- module50 -->
<g id="node13" class="node">
<title>module50</title>
<g id="a_node13"><a xlink:href="#ok" xlink:title="{&#39;$gn&#39;,module,50}">
<polygon fill="none" stroke="purple" points="3135.26,-180 2994.26,-180 2994.26,-144 3135.26,-144 3135.26,-180"/>
<text text-anchor="middle" x="3064.76" y="-157.6" font-family="Times,serif" font-size="18.00">reflib_token_gen</text>
</a>
</g>
</g>
<!-- module49 -->
<g id="node14" class="node">
<title>module49</title>
<g id="a_node14"><a xlink:href="#ok" xlink:title="{&#39;$gn&#39;,module,49}">
<polygon fill="none" stroke="purple" points="4036.76,-180 3982.76,-180 3982.76,-144 4036.76,-144 4036.76,-180"/>
<text text-anchor="middle" x="4009.76" y="-157.6" font-family="Times,serif" font-size="18.00">file</text>
</a>
</g>
</g>
<!-- module45 -->
<g id="node15" class="node">
<title>module45</title>
<g id="a_node15"><a xlink:href="#ok" xlink:title="{&#39;$gn&#39;,module,45}">
<polygon fill="none" stroke="purple" points="423.76,-36 291.76,-36 291.76,0 423.76,0 423.76,-36"/>
<text text-anchor="middle" x="357.76" y="-13.6" font-family="Times,serif" font-size="18.00">reflib_ui_router</text>
</a>
</g>
</g>
<!-- module44 -->
<g id="node16" class="node">
<title>module44</title>
<g id="a_node16"><a xlink:href="#ok" xlink:title="{&#39;$gn&#39;,module,44}">
<polygon fill="none" stroke="purple" points="1982.76,-252 1896.76,-252 1896.76,-216 1982.76,-216 1982.76,-252"/>
<text text-anchor="middle" x="1939.76" y="-229.6" font-family="Times,serif" font-size="18.00">referl_els</text>
</a>
</g>
</g>
<!-- module44&#45;&gt;module51 -->
<g id="edge20" class="edge">
<title>module44&#45;&gt;module51</title>
<g id="a_edge20"><a xlink:title="modcall">
<path fill="none" stroke="black" stroke-dasharray="5,2" d="M1896.62,-222.37C1845.79,-209.84 1761.39,-189.04 1707.19,-175.68"/>
<polygon fill="black" stroke="black" points="1707.99,-172.27 1697.44,-173.27 1706.31,-179.07 1707.99,-172.27"/>
</a>
</g>
</g>
<!-- module44&#45;&gt;module50 -->
<g id="edge18" class="edge">
<title>module44&#45;&gt;module50</title>
<g id="a_edge18"><a xlink:title="modcall">
<path fill="none" stroke="black" stroke-dasharray="5,2" d="M1982.93,-217.88C1985.9,-217.16 1988.86,-216.52 1991.76,-216 2423.69,-139.15 2545.25,-233.27 2984.13,-180.06"/>
<polygon fill="black" stroke="black" points="2984.73,-183.52 2994.23,-178.82 2983.87,-176.57 2984.73,-183.52"/>
</a>
</g>
</g>
<!-- module44&#45;&gt;module49 -->
<g id="edge19" class="edge">
<title>module44&#45;&gt;module49</title>
<g id="a_edge19"><a xlink:title="modcall">
<path fill="none" stroke="black" stroke-dasharray="5,2" d="M1982.92,-217.82C1985.89,-217.11 1988.85,-216.49 1991.76,-216 2425.04,-142.92 3538.61,-269.72 3968.76,-180 3970.03,-179.73 3971.31,-179.43 3972.6,-179.09"/>
<polygon fill="black" stroke="black" points="3973.94,-182.34 3982.42,-175.98 3971.83,-175.67 3973.94,-182.34"/>
</a>
</g>
</g>
<!-- module44&#45;&gt;module45 -->
<g id="edge22" class="edge">
<title>module44&#45;&gt;module45</title>
<g id="a_edge22"><a xlink:title="modcall">
<path fill="none" stroke="black" stroke-dasharray="5,2" d="M1896.64,-232.41C1678.38,-229.31 693.67,-213.64 389.76,-180 218.04,-160.99 118.03,-241 7.76,-108 -2.46,-95.68 -2.68,-84.13 7.76,-72 42.32,-31.8 189.27,-21.71 281.42,-19.41"/>
<polygon fill="black" stroke="black" points="281.63,-22.91 291.54,-19.18 281.47,-15.91 281.63,-22.91"/>
</a>
</g>
</g>
<!-- module42 -->
<g id="node17" class="node">
<title>module42</title>
<g id="a_node17"><a xlink:href="#ok" xlink:title="{&#39;$gn&#39;,module,42}">
<polygon fill="none" stroke="purple" points="862.26,-108 807.26,-108 807.26,-72 862.26,-72 862.26,-108"/>
<text text-anchor="middle" x="834.76" y="-85.6" font-family="Times,serif" font-size="18.00">maps</text>
</a>
</g>
</g>
<!-- module44&#45;&gt;module42 -->
<g id="edge15" class="edge">
<title>module44&#45;&gt;module42</title>
<g id="a_edge15"><a xlink:title="modcall">
<path fill="none" stroke="black" stroke-dasharray="5,2" d="M1896.71,-231.83C1747.04,-227.52 1249.99,-211.15 1093.76,-180 1012.23,-163.75 921.25,-128.18 871.76,-107.26"/>
<polygon fill="black" stroke="black" points="873,-103.99 862.43,-103.28 870.26,-110.43 873,-103.99"/>
</a>
</g>
</g>
<!-- module44&#45;&gt;module18 -->
<g id="edge23" class="edge">
<title>module44&#45;&gt;module18</title>
<g id="a_edge23"><a xlink:title="modcall">
<path fill="none" stroke="black" stroke-dasharray="5,2" d="M1982.95,-217.98C1985.91,-217.23 1988.86,-216.56 1991.76,-216 2228.78,-170.13 2303.73,-253.28 2533.76,-180 2577.88,-165.94 2622.34,-135.72 2650.18,-114.41"/>
<polygon fill="black" stroke="black" points="2652.53,-117.02 2658.27,-108.11 2648.23,-111.49 2652.53,-117.02"/>
</a>
</g>
</g>
<!-- module44&#45;&gt;module11 -->
<g id="edge17" class="edge">
<title>module44&#45;&gt;module11</title>
<g id="a_edge17"><a xlink:title="modcall">
<path fill="none" stroke="black" stroke-dasharray="5,2" d="M1974.74,-215.87C2029.99,-188.82 2136.95,-136.44 2193.18,-108.91"/>
<polygon fill="black" stroke="black" points="2194.97,-111.93 2202.41,-104.39 2191.89,-105.64 2194.97,-111.93"/>
</a>
</g>
</g>
<!-- module10 -->
<g id="node44" class="node">
<title>module10</title>
<g id="a_node44"><a xlink:href="#ok" xlink:title="{&#39;$gn&#39;,module,10}">
<polygon fill="none" stroke="purple" points="788.76,-108 662.76,-108 662.76,-72 788.76,-72 788.76,-108"/>
<text text-anchor="middle" x="725.76" y="-85.6" font-family="Times,serif" font-size="18.00">referl_els_utils</text>
</a>
</g>
</g>
<!-- module44&#45;&gt;module10 -->
<g id="edge21" class="edge">
<title>module44&#45;&gt;module10</title>
<g id="a_edge21"><a xlink:title="modcall">
<path fill="none" stroke="black" stroke-dasharray="5,2" d="M1896.59,-232.36C1732.59,-229.67 1148.36,-217.59 966.76,-180 896.07,-165.37 818.43,-133.66 770.89,-112.32"/>
<polygon fill="black" stroke="black" points="772.05,-109.01 761.5,-108.07 769.16,-115.38 772.05,-109.01"/>
</a>
</g>
</g>
<!-- module44&#45;&gt;module8 -->
<g id="edge24" class="edge">
<title>module44&#45;&gt;module8</title>
<g id="a_edge24"><a xlink:title="modcall">
<path fill="none" stroke="black" stroke-dasharray="5,2" d="M1982.93,-217.84C1985.89,-217.12 1988.85,-216.5 1991.76,-216 2347.37,-155.3 3256.66,-223.69 3614.76,-180 3759.89,-162.29 3844.38,-222.14 3935.76,-108 3945.75,-95.51 3946.85,-83.53 3935.76,-72 3888.06,-22.44 2819.13,-19.14 2594.1,-18.99"/>
<polygon fill="black" stroke="black" points="2594.03,-15.49 2584.03,-18.99 2594.03,-22.49 2594.03,-15.49"/>
</a>
</g>
</g>
<!-- module2 -->
<g id="node52" class="node">
<title>module2</title>
<g id="a_node52"><a xlink:href="#ok" xlink:title="{&#39;$gn&#39;,module,2}">
<polygon fill="none" stroke="purple" points="574.26,-180 399.26,-180 399.26,-144 574.26,-144 574.26,-180"/>
<text text-anchor="middle" x="486.76" y="-157.6" font-family="Times,serif" font-size="18.00">referl_vsc_websocket</text>
</a>
</g>
</g>
<!-- module44&#45;&gt;module2 -->
<g id="edge16" class="edge">
<title>module44&#45;&gt;module2</title>
<g id="a_edge16"><a xlink:title="modcall">
<path fill="none" stroke="black" stroke-dasharray="5,2" d="M1896.67,-231.41C1741.45,-225.62 1196.23,-204.68 746.76,-180 693.1,-177.05 633.25,-173.18 584.51,-169.88"/>
<polygon fill="black" stroke="black" points="584.5,-166.37 574.28,-169.18 584.02,-173.35 584.5,-166.37"/>
</a>
</g>
</g>
<!-- module41 -->
<g id="node18" class="node">
<title>module41</title>
<g id="a_node18"><a xlink:href="#ok" xlink:title="{&#39;$gn&#39;,module,41}">
<polygon fill="none" stroke="purple" points="1356.76,-180 1102.76,-180 1102.76,-144 1356.76,-144 1356.76,-180"/>
<text text-anchor="middle" x="1229.76" y="-157.6" font-family="Times,serif" font-size="18.00">els_execute_command_provider</text>
</a>
</g>
</g>
<!-- module41&#45;&gt;module42 -->
<g id="edge26" class="edge">
<title>module41&#45;&gt;module42</title>
<g id="a_edge26"><a xlink:title="modcall">
<path fill="none" stroke="black" stroke-dasharray="5,2" d="M1102.46,-149.22C1034.65,-141.12 950.28,-128.1 876.76,-108 875.29,-107.6 873.8,-107.16 872.3,-106.69"/>
<polygon fill="black" stroke="black" points="873.05,-103.25 862.45,-103.28 870.75,-109.86 873.05,-103.25"/>
</a>
</g>
</g>
<!-- module35 -->
<g id="node23" class="node">
<title>module35</title>
<g id="a_node23"><a xlink:href="#ok" xlink:title="{&#39;$gn&#39;,module,35}">
<polygon fill="none" stroke="purple" points="2026.76,-108 1908.76,-108 1908.76,-72 2026.76,-72 2026.76,-108"/>
<text text-anchor="middle" x="1967.76" y="-85.6" font-family="Times,serif" font-size="18.00">els_command</text>
</a>
</g>
</g>
<!-- module41&#45;&gt;module35 -->
<g id="edge25" class="edge">
<title>module41&#45;&gt;module35</title>
<g id="a_edge25"><a xlink:title="modcall">
<path fill="none" stroke="black" stroke-dasharray="5,2" d="M1356.77,-157.23C1489.78,-151.84 1704.7,-139.09 1898.45,-108.05"/>
<polygon fill="black" stroke="black" points="1899.23,-111.47 1908.54,-106.42 1898.11,-104.57 1899.23,-111.47"/>
</a>
</g>
</g>
<!-- module39 -->
<g id="node19" class="node">
<title>module39</title>
<g id="a_node19"><a xlink:href="#ok" xlink:title="{&#39;$gn&#39;,module,39}">
<polygon fill="none" stroke="purple" points="2398.76,-108 2312.76,-108 2312.76,-72 2398.76,-72 2398.76,-108"/>
<text text-anchor="middle" x="2355.76" y="-85.6" font-family="Times,serif" font-size="18.00">els_range</text>
</a>
</g>
</g>
<!-- module38 -->
<g id="node20" class="node">
<title>module38</title>
<g id="a_node20"><a xlink:href="#ok" xlink:title="{&#39;$gn&#39;,module,38}">
<polygon fill="none" stroke="purple" points="2558.26,-108 2417.26,-108 2417.26,-72 2558.26,-72 2558.26,-108"/>
<text text-anchor="middle" x="2487.76" y="-85.6" font-family="Times,serif" font-size="18.00">els_dt_document</text>
</a>
</g>
</g>
<!-- module37 -->
<g id="node21" class="node">
<title>module37</title>
<g id="a_node21"><a xlink:href="#ok" xlink:title="{&#39;$gn&#39;,module,37}">
<polygon fill="none" stroke="purple" points="2630.76,-108 2576.76,-108 2576.76,-72 2630.76,-72 2630.76,-108"/>
<text text-anchor="middle" x="2603.76" y="-85.6" font-family="Times,serif" font-size="18.00">re</text>
</a>
</g>
</g>
<!-- module36 -->
<g id="node22" class="node">
<title>module36</title>
<g id="a_node22"><a xlink:href="#ok" xlink:title="{&#39;$gn&#39;,module,36}">
<polygon fill="none" stroke="purple" points="2128.76,-252 2000.76,-252 2000.76,-216 2128.76,-216 2128.76,-252"/>
<text text-anchor="middle" x="2064.76" y="-229.6" font-family="Times,serif" font-size="18.00">els_diagnostics</text>
</a>
</g>
</g>
<!-- module34 -->
<g id="node24" class="node">
<title>module34</title>
<g id="a_node24"><a xlink:href="#ok" xlink:title="{&#39;$gn&#39;,module,34}">
<polygon fill="none" stroke="purple" points="2524.26,-180 2319.26,-180 2319.26,-144 2524.26,-144 2524.26,-180"/>
<text text-anchor="middle" x="2421.76" y="-157.6" font-family="Times,serif" font-size="18.00">els_code_action_provider</text>
</a>
</g>
</g>
<!-- module34&#45;&gt;module39 -->
<g id="edge34" class="edge">
<title>module34&#45;&gt;module39</title>
<g id="a_edge34"><a xlink:title="modcall">
<path fill="none" stroke="black" stroke-dasharray="5,2" d="M2405.44,-143.7C2397.45,-135.22 2387.68,-124.86 2378.93,-115.58"/>
<polygon fill="black" stroke="black" points="2381.29,-112.98 2371.88,-108.1 2376.2,-117.78 2381.29,-112.98"/>
</a>
</g>
</g>
<!-- module34&#45;&gt;module38 -->
<g id="edge29" class="edge">
<title>module34&#45;&gt;module38</title>
<g id="a_edge29"><a xlink:title="modcall">
<path fill="none" stroke="black" stroke-dasharray="5,2" d="M2438.07,-143.7C2446.06,-135.22 2455.83,-124.86 2464.58,-115.58"/>
<polygon fill="black" stroke="black" points="2467.32,-117.78 2471.63,-108.1 2462.22,-112.98 2467.32,-117.78"/>
</a>
</g>
</g>
<!-- module34&#45;&gt;module37 -->
<g id="edge30" class="edge">
<title>module34&#45;&gt;module37</title>
<g id="a_edge30"><a xlink:title="modcall">
<path fill="none" stroke="black" stroke-dasharray="5,2" d="M2472.2,-143.99C2498.32,-134.88 2530.83,-123.08 2567.37,-107.99"/>
<polygon fill="black" stroke="black" points="2568.87,-111.16 2576.75,-104.08 2566.17,-104.7 2568.87,-111.16"/>
</a>
</g>
</g>
<!-- module34&#45;&gt;module35 -->
<g id="edge31" class="edge">
<title>module34&#45;&gt;module35</title>
<g id="a_edge31"><a xlink:title="modcall">
<path fill="none" stroke="black" stroke-dasharray="5,2" d="M2318.86,-149.95C2243.32,-141.12 2138.1,-127.32 2037.09,-108.15"/>
<polygon fill="black" stroke="black" points="2037.49,-104.66 2027.01,-106.22 2036.17,-111.54 2037.49,-104.66"/>
</a>
</g>
</g>
<!-- module30 -->
<g id="node27" class="node">
<title>module30</title>
<g id="a_node27"><a xlink:href="#ok" xlink:title="{&#39;$gn&#39;,module,30}">
<polygon fill="none" stroke="purple" points="2792.76,-108 2726.76,-108 2726.76,-72 2792.76,-72 2792.76,-108"/>
<text text-anchor="middle" x="2759.76" y="-85.6" font-family="Times,serif" font-size="18.00">els_uri</text>
</a>
</g>
</g>
<!-- module34&#45;&gt;module30 -->
<g id="edge32" class="edge">
<title>module34&#45;&gt;module30</title>
<g id="a_edge32"><a xlink:title="modcall">
<path fill="none" stroke="black" stroke-dasharray="5,2" d="M2524.33,-147.99C2579.28,-139.75 2648.05,-127.4 2716.81,-107.97"/>
<polygon fill="black" stroke="black" points="2717.86,-111.31 2726.51,-105.18 2715.93,-104.58 2717.86,-111.31"/>
</a>
</g>
</g>
<!-- module34&#45;&gt;module18 -->
<g id="edge28" class="edge">
<title>module34&#45;&gt;module18</title>
<g id="a_edge28"><a xlink:title="modcall">
<path fill="none" stroke="black" stroke-dasharray="5,2" d="M2506.57,-143.95C2547.32,-134.86 2596.57,-122.54 2639.76,-108 2639.85,-107.97 2639.95,-107.94 2640.04,-107.9"/>
<polygon fill="black" stroke="black" points="2640.99,-111.29 2649.15,-104.53 2638.56,-104.72 2640.99,-111.29"/>
</a>
</g>
</g>
<!-- module34&#45;&gt;module11 -->
<g id="edge33" class="edge">
<title>module34&#45;&gt;module11</title>
<g id="a_edge33"><a xlink:title="modcall">
<path fill="none" stroke="black" stroke-dasharray="5,2" d="M2370.82,-143.91C2341.43,-133.85 2303.84,-120.65 2270.76,-108 2269.36,-107.47 2267.94,-106.92 2266.51,-106.36"/>
<polygon fill="black" stroke="black" points="2267.6,-103.02 2257.02,-102.55 2265,-109.52 2267.6,-103.02"/>
</a>
</g>
</g>
<!-- module34&#45;&gt;module8 -->
<g id="edge27" class="edge">
<title>module34&#45;&gt;module8</title>
<g id="a_edge27"><a xlink:title="modcall">
<path fill="none" stroke="black" stroke-dasharray="5,2" d="M2349.87,-143.92C2331.79,-136.04 2314.49,-124.59 2303.76,-108 2295.06,-94.57 2293.69,-84.44 2303.76,-72 2329.44,-40.27 2447.7,-26.74 2511.56,-21.66"/>
<polygon fill="black" stroke="black" points="2511.99,-25.14 2521.7,-20.89 2511.46,-18.16 2511.99,-25.14"/>
</a>
</g>
</g>
<!-- module32 -->
<g id="node25" class="node">
<title>module32</title>
<g id="a_node25"><a xlink:href="#ok" xlink:title="{&#39;$gn&#39;,module,32}">
<polygon fill="none" stroke="purple" points="3048.76,-108 2958.76,-108 2958.76,-72 3048.76,-72 3048.76,-108"/>
<text text-anchor="middle" x="3003.76" y="-85.6" font-family="Times,serif" font-size="18.00">els_server</text>
</a>
</g>
</g>
<!-- module31 -->
<g id="node26" class="node">
<title>module31</title>
<g id="a_node26"><a xlink:href="#ok" xlink:title="{&#39;$gn&#39;,module,31}">
<polygon fill="none" stroke="purple" points="3120.76,-108 3066.76,-108 3066.76,-72 3120.76,-72 3120.76,-108"/>
<text text-anchor="middle" x="3093.76" y="-85.6" font-family="Times,serif" font-size="18.00">rpc</text>
</a>
</g>
</g>
<!-- module29 -->
<g id="node28" class="node">
<title>module29</title>
<g id="a_node28"><a xlink:href="#ok" xlink:title="{&#39;$gn&#39;,module,29}">
<polygon fill="none" stroke="purple" points="3216.26,-108 3139.26,-108 3139.26,-72 3216.26,-72 3216.26,-108"/>
<text text-anchor="middle" x="3177.76" y="-85.6" font-family="Times,serif" font-size="18.00">els_utils</text>
</a>
</g>
</g>
<!-- module28 -->
<g id="node29" class="node">
<title>module28</title>
<g id="a_node29"><a xlink:href="#ok" xlink:title="{&#39;$gn&#39;,module,28}">
<polygon fill="none" stroke="purple" points="3392.76,-108 3234.76,-108 3234.76,-72 3392.76,-72 3392.76,-108"/>
<text text-anchor="middle" x="3313.76" y="-85.6" font-family="Times,serif" font-size="18.00">els_config_runtime</text>
</a>
</g>
</g>
<!-- module27 -->
<g id="node30" class="node">
<title>module27</title>
<g id="a_node30"><a xlink:href="#ok" xlink:title="{&#39;$gn&#39;,module,27}">
<polygon fill="none" stroke="purple" points="2940.76,-108 2848.76,-108 2848.76,-72 2940.76,-72 2940.76,-108"/>
<text text-anchor="middle" x="2894.76" y="-85.6" font-family="Times,serif" font-size="18.00">els_config</text>
</a>
</g>
</g>
<!-- module26 -->
<g id="node31" class="node">
<title>module26</title>
<g id="a_node31"><a xlink:href="#ok" xlink:title="{&#39;$gn&#39;,module,26}">
<polygon fill="none" stroke="purple" points="2976.26,-180 2813.26,-180 2813.26,-144 2976.26,-144 2976.26,-180"/>
<text text-anchor="middle" x="2894.76" y="-157.6" font-family="Times,serif" font-size="18.00">els_refactorerl_utils</text>
</a>
</g>
</g>
<!-- module26&#45;&gt;module32 -->
<g id="edge36" class="edge">
<title>module26&#45;&gt;module32</title>
<g id="a_edge36"><a xlink:title="modcall">
<path fill="none" stroke="black" stroke-dasharray="5,2" d="M2921.42,-143.88C2935.54,-134.81 2953.07,-123.55 2968.32,-113.76"/>
<polygon fill="black" stroke="black" points="2970.47,-116.54 2976.99,-108.19 2966.68,-110.65 2970.47,-116.54"/>
</a>
</g>
</g>
<!-- module26&#45;&gt;module31 -->
<g id="edge38" class="edge">
<title>module26&#45;&gt;module31</title>
<g id="a_edge38"><a xlink:title="modcall">
<path fill="none" stroke="black" stroke-dasharray="5,2" d="M2953.1,-144C2982.13,-135.08 3017.83,-123.44 3056.93,-108.12"/>
<polygon fill="black" stroke="black" points="3058.39,-111.3 3066.4,-104.36 3055.81,-104.79 3058.39,-111.3"/>
</a>
</g>
</g>
<!-- module26&#45;&gt;module30 -->
<g id="edge39" class="edge">
<title>module26&#45;&gt;module30</title>
<g id="a_edge39"><a xlink:title="modcall">
<path fill="none" stroke="black" stroke-dasharray="5,2" d="M2861.73,-143.88C2843.67,-134.51 2821.11,-122.81 2801.8,-112.8"/>
<polygon fill="black" stroke="black" points="2803.4,-109.69 2792.91,-108.19 2800.17,-115.9 2803.4,-109.69"/>
</a>
</g>
</g>
<!-- module26&#45;&gt;module29 -->
<g id="edge35" class="edge">
<title>module26&#45;&gt;module29</title>
<g id="a_edge35"><a xlink:title="modcall">
<path fill="none" stroke="black" stroke-dasharray="5,2" d="M2976.38,-145.08C3019.38,-136.1 3073.08,-123.97 3129.32,-107.95"/>
<polygon fill="black" stroke="black" points="3130.47,-111.26 3139.11,-105.13 3128.53,-104.54 3130.47,-111.26"/>
</a>
</g>
</g>
<!-- module26&#45;&gt;module28 -->
<g id="edge41" class="edge">
<title>module26&#45;&gt;module28</title>
<g id="a_edge41"><a xlink:title="modcall">
<path fill="none" stroke="black" stroke-dasharray="5,2" d="M2976.58,-145.57C2979.68,-145.03 2982.74,-144.51 2985.76,-144 3089,-126.62 3117.78,-126.24 3224.73,-108.14"/>
<polygon fill="black" stroke="black" points="3225.36,-111.58 3234.63,-106.45 3224.18,-104.68 3225.36,-111.58"/>
</a>
</g>
</g>
<!-- module26&#45;&gt;module27 -->
<g id="edge40" class="edge">
<title>module26&#45;&gt;module27</title>
<g id="a_edge40"><a xlink:title="modcall">
<path fill="none" stroke="black" stroke-dasharray="5,2" d="M2894.76,-143.7C2894.76,-135.98 2894.76,-126.71 2894.76,-118.11"/>
<polygon fill="black" stroke="black" points="2898.26,-118.1 2894.76,-108.1 2891.26,-118.1 2898.26,-118.1"/>
</a>
</g>
</g>
<!-- module26&#45;&gt;module18 -->
<g id="edge37" class="edge">
<title>module26&#45;&gt;module18</title>
<g id="a_edge37"><a xlink:title="modcall">
<path fill="none" stroke="black" stroke-dasharray="5,2" d="M2831.07,-143.93C2797.11,-134.33 2754.8,-121.57 2717.76,-108 2717.66,-107.97 2717.56,-107.93 2717.47,-107.89"/>
<polygon fill="black" stroke="black" points="2719.01,-104.74 2708.42,-104.37 2716.46,-111.26 2719.01,-104.74"/>
</a>
</g>
</g>
<!-- module26&#45;&gt;module8 -->
<g id="edge42" class="edge">
<title>module26&#45;&gt;module8</title>
<g id="a_edge42"><a xlink:title="modcall">
<path fill="none" stroke="black" stroke-dasharray="5,2" d="M2877.09,-143.98C2850.44,-118.32 2802.89,-72.6 2801.76,-72 2734.69,-36.52 2645.59,-24.79 2594.18,-20.91"/>
<polygon fill="black" stroke="black" points="2594.32,-17.42 2584.11,-20.22 2593.84,-24.4 2594.32,-17.42"/>
</a>
</g>
</g>
<!-- module24 -->
<g id="node32" class="node">
<title>module24</title>
<g id="a_node32"><a xlink:href="#ok" xlink:title="{&#39;$gn&#39;,module,24}">
<polygon fill="none" stroke="purple" points="3968.26,-36 3905.26,-36 3905.26,0 3968.26,0 3968.26,-36"/>
<text text-anchor="middle" x="3936.76" y="-13.6" font-family="Times,serif" font-size="18.00">logger</text>
</a>
</g>
</g>
<!-- module23 -->
<g id="node33" class="node">
<title>module23</title>
<g id="a_node33"><a xlink:href="#ok" xlink:title="{&#39;$gn&#39;,module,23}">
<polygon fill="none" stroke="purple" points="4084.76,-36 3986.76,-36 3986.76,0 4084.76,0 4084.76,-36"/>
<text text-anchor="middle" x="4035.76" y="-13.6" font-family="Times,serif" font-size="18.00">application</text>
</a>
</g>
</g>
<!-- module22 -->
<g id="node34" class="node">
<title>module22</title>
<g id="a_node34"><a xlink:href="#ok" xlink:title="{&#39;$gn&#39;,module,22}">
<polygon fill="none" stroke="purple" points="4194.76,-36 4102.76,-36 4102.76,0 4194.76,0 4194.76,-36"/>
<text text-anchor="middle" x="4148.76" y="-13.6" font-family="Times,serif" font-size="18.00">supervisor</text>
</a>
</g>
</g>
<!-- module21 -->
<g id="node35" class="node">
<title>module21</title>
<g id="a_node35"><a xlink:href="#ok" xlink:title="{&#39;$gn&#39;,module,21}">
<polygon fill="none" stroke="purple" points="4088.76,-108 3982.76,-108 3982.76,-72 4088.76,-72 4088.76,-108"/>
<text text-anchor="middle" x="4035.76" y="-85.6" font-family="Times,serif" font-size="18.00">els_dap_sup</text>
</a>
</g>
</g>
<!-- module21&#45;&gt;module24 -->
<g id="edge46" class="edge">
<title>module21&#45;&gt;module24</title>
<g id="a_edge46"><a xlink:title="modcall">
<path fill="none" stroke="black" stroke-dasharray="5,2" d="M4011.54,-71.88C3998.83,-62.89 3983.09,-51.76 3969.33,-42.03"/>
<polygon fill="black" stroke="black" points="3971.25,-39.11 3961.07,-36.19 3967.21,-44.82 3971.25,-39.11"/>
</a>
</g>
</g>
<!-- module21&#45;&gt;module23 -->
<g id="edge44" class="edge">
<title>module21&#45;&gt;module23</title>
<g id="a_edge44"><a xlink:title="modcall">
<path fill="none" stroke="black" stroke-dasharray="5,2" d="M4035.76,-71.7C4035.76,-63.98 4035.76,-54.71 4035.76,-46.11"/>
<polygon fill="black" stroke="black" points="4039.26,-46.1 4035.76,-36.1 4032.26,-46.1 4039.26,-46.1"/>
</a>
</g>
</g>
<!-- module21&#45;&gt;module22 -->
<g id="edge43" class="edge">
<title>module21&#45;&gt;module22</title>
<g id="a_edge43"><a xlink:title="modcall">
<path fill="none" stroke="black" stroke-dasharray="5,2" d="M4063.4,-71.88C4078.17,-62.72 4096.55,-51.34 4112.46,-41.48"/>
<polygon fill="black" stroke="black" points="4114.35,-44.43 4121.01,-36.19 4110.66,-38.48 4114.35,-44.43"/>
</a>
</g>
</g>
<!-- module21&#45;&gt;module8 -->
<g id="edge45" class="edge">
<title>module21&#45;&gt;module8</title>
<g id="a_edge45"><a xlink:title="modcall">
<path fill="none" stroke="black" stroke-dasharray="5,2" d="M3982.57,-74.43C3977.92,-73.48 3973.27,-72.65 3968.76,-72 3693.21,-32.34 2798.12,-21.38 2594.32,-19.37"/>
<polygon fill="black" stroke="black" points="2594.08,-15.87 2584.05,-19.27 2594.01,-22.87 2594.08,-15.87"/>
</a>
</g>
</g>
<!-- module19 -->
<g id="node36" class="node">
<title>module19</title>
<g id="a_node36"><a xlink:href="#ok" xlink:title="{&#39;$gn&#39;,module,19}">
<polygon fill="none" stroke="purple" points="3675.26,-108 3568.26,-108 3568.26,-72 3675.26,-72 3675.26,-108"/>
<text text-anchor="middle" x="3621.76" y="-85.6" font-family="Times,serif" font-size="18.00">error_logger</text>
</a>
</g>
</g>
<!-- module17 -->
<g id="node38" class="node">
<title>module17</title>
<g id="a_node38"><a xlink:href="#ok" xlink:title="{&#39;$gn&#39;,module,17}">
<polygon fill="none" stroke="purple" points="3754.26,-108 3693.26,-108 3693.26,-72 3754.26,-72 3754.26,-108"/>
<text text-anchor="middle" x="3723.76" y="-85.6" font-family="Times,serif" font-size="18.00">filelib</text>
</a>
</g>
</g>
<!-- module16 -->
<g id="node39" class="node">
<title>module16</title>
<g id="a_node39"><a xlink:href="#ok" xlink:title="{&#39;$gn&#39;,module,16}">
<polygon fill="none" stroke="purple" points="3826.76,-108 3772.76,-108 3772.76,-72 3826.76,-72 3826.76,-108"/>
<text text-anchor="middle" x="3799.76" y="-85.6" font-family="Times,serif" font-size="18.00">code</text>
</a>
</g>
</g>
<!-- module15 -->
<g id="node40" class="node">
<title>module15</title>
<g id="a_node40"><a xlink:href="#ok" xlink:title="{&#39;$gn&#39;,module,15}">
<polygon fill="none" stroke="purple" points="3926.26,-108 3845.26,-108 3845.26,-72 3926.26,-72 3926.26,-108"/>
<text text-anchor="middle" x="3885.76" y="-85.6" font-family="Times,serif" font-size="18.00">filename</text>
</a>
</g>
</g>
<!-- module14 -->
<g id="node41" class="node">
<title>module14</title>
<g id="a_node41"><a xlink:href="#ok" xlink:title="{&#39;$gn&#39;,module,14}">
<polygon fill="none" stroke="purple" points="3550.26,-108 3449.26,-108 3449.26,-72 3550.26,-72 3550.26,-108"/>
<text text-anchor="middle" x="3499.76" y="-85.6" font-family="Times,serif" font-size="18.00">web_helper</text>
</a>
</g>
</g>
<!-- module13 -->
<g id="node42" class="node">
<title>module13</title>
<g id="a_node42"><a xlink:href="#ok" xlink:title="{&#39;$gn&#39;,module,13}">
<polygon fill="none" stroke="purple" points="3605.26,-180 3516.26,-180 3516.26,-144 3605.26,-144 3605.26,-180"/>
<text text-anchor="middle" x="3560.76" y="-157.6" font-family="Times,serif" font-size="18.00">referl_vsc</text>
</a>
</g>
</g>
<!-- module13&#45;&gt;module19 -->
<g id="edge47" class="edge">
<title>module13&#45;&gt;module19</title>
<g id="a_edge47"><a xlink:title="modcall">
<path fill="none" stroke="black" stroke-dasharray="5,2" d="M3575.83,-143.7C3583.15,-135.3 3592.07,-125.07 3600.09,-115.86"/>
<polygon fill="black" stroke="black" points="3602.92,-117.94 3606.85,-108.1 3597.64,-113.34 3602.92,-117.94"/>
</a>
</g>
</g>
<!-- module13&#45;&gt;module18 -->
<g id="edge53" class="edge">
<title>module13&#45;&gt;module18</title>
<g id="a_edge53"><a xlink:title="modcall">
<path fill="none" stroke="black" stroke-dasharray="5,2" d="M3516.24,-159.11C3358.65,-152.29 2831.08,-128.39 2718.47,-107.34"/>
<polygon fill="black" stroke="black" points="2719.14,-103.91 2708.63,-105.25 2717.68,-110.75 2719.14,-103.91"/>
</a>
</g>
</g>
<!-- module13&#45;&gt;module17 -->
<g id="edge48" class="edge">
<title>module13&#45;&gt;module17</title>
<g id="a_edge48"><a xlink:title="modcall">
<path fill="none" stroke="black" stroke-dasharray="5,2" d="M3600.99,-143.89C3623.19,-134.43 3651.45,-122.36 3683.86,-108.38"/>
<polygon fill="black" stroke="black" points="3685.31,-111.56 3693.11,-104.38 3682.54,-105.13 3685.31,-111.56"/>
</a>
</g>
</g>
<!-- module13&#45;&gt;module16 -->
<g id="edge51" class="edge">
<title>module13&#45;&gt;module16</title>
<g id="a_edge51"><a xlink:title="modcall">
<path fill="none" stroke="black" stroke-dasharray="5,2" d="M3605.43,-151.85C3644.94,-143.2 3704.13,-128.88 3763.02,-107.95"/>
<polygon fill="black" stroke="black" points="3764.25,-111.22 3772.46,-104.53 3761.87,-104.64 3764.25,-111.22"/>
</a>
</g>
</g>
<!-- module13&#45;&gt;module15 -->
<g id="edge49" class="edge">
<title>module13&#45;&gt;module15</title>
<g id="a_edge49"><a xlink:title="modcall">
<path fill="none" stroke="black" stroke-dasharray="5,2" d="M3605.48,-154.32C3658.27,-146.01 3748.78,-130.42 3835.5,-107.86"/>
<polygon fill="black" stroke="black" points="3836.46,-111.23 3845.24,-105.3 3834.68,-104.46 3836.46,-111.23"/>
</a>
</g>
</g>
<!-- module13&#45;&gt;module14 -->
<g id="edge50" class="edge">
<title>module13&#45;&gt;module14</title>
<g id="a_edge50"><a xlink:title="modcall">
<path fill="none" stroke="black" stroke-dasharray="5,2" d="M3545.68,-143.7C3538.36,-135.3 3529.45,-125.07 3521.42,-115.86"/>
<polygon fill="black" stroke="black" points="3523.87,-113.34 3514.66,-108.1 3518.59,-117.94 3523.87,-113.34"/>
</a>
</g>
</g>
<!-- module13&#45;&gt;module11 -->
<g id="edge54" class="edge">
<title>module13&#45;&gt;module11</title>
<g id="a_edge54"><a xlink:title="modcall">
<path fill="none" stroke="black" stroke-dasharray="5,2" d="M3516.24,-159.18C3294.5,-150.1 2319.1,-110.07 2303.76,-108 2291.63,-106.37 2278.57,-103.68 2266.85,-100.92"/>
<polygon fill="black" stroke="black" points="2267.49,-97.48 2256.95,-98.51 2265.83,-104.28 2267.49,-97.48"/>
</a>
</g>
</g>
<!-- module13&#45;&gt;module8 -->
<g id="edge52" class="edge">
<title>module13&#45;&gt;module8</title>
<g id="a_edge52"><a xlink:title="modcall">
<path fill="none" stroke="black" stroke-dasharray="5,2" d="M3516.21,-145.39C3492.79,-136.2 3464.18,-123.37 3440.76,-108 3421.03,-95.06 3423.45,-81.27 3401.76,-72 3327.17,-40.12 2755.29,-23.92 2594.62,-19.97"/>
<polygon fill="black" stroke="black" points="2594.29,-16.46 2584.21,-19.72 2594.12,-23.46 2594.29,-16.46"/>
</a>
</g>
</g>
<!-- module10&#45;&gt;module45 -->
<g id="edge55" class="edge">
<title>module10&#45;&gt;module45</title>
<g id="a_edge55"><a xlink:title="modcall">
<path fill="none" stroke="black" stroke-dasharray="5,2" d="M662.49,-76.97C599.16,-64.92 501.66,-46.37 434.08,-33.52"/>
<polygon fill="black" stroke="black" points="434.39,-30.01 423.91,-31.58 433.08,-36.89 434.39,-30.01"/>
</a>
</g>
</g>
<!-- module10&#45;&gt;module8 -->
<g id="edge56" class="edge">
<title>module10&#45;&gt;module8</title>
<g id="a_edge56"><a xlink:title="modcall">
<path fill="none" stroke="black" stroke-dasharray="5,2" d="M788.92,-73.48C792.24,-72.92 795.53,-72.42 798.76,-72 1145.39,-26.86 2280.01,-20.06 2511.35,-19.14"/>
<polygon fill="black" stroke="black" points="2511.69,-22.63 2521.68,-19.1 2511.67,-15.63 2511.69,-22.63"/>
</a>
</g>
</g>
<!-- module9 -->
<g id="node45" class="node">
<title>module9</title>
<g id="a_node45"><a xlink:href="#ok" xlink:title="{&#39;$gn&#39;,module,9}">
<polygon fill="none" stroke="purple" points="440.26,-108 361.26,-108 361.26,-72 440.26,-72 440.26,-108"/>
<text text-anchor="middle" x="400.76" y="-85.6" font-family="Times,serif" font-size="18.00">proplists</text>
</a>
</g>
</g>
<!-- module7 -->
<g id="node47" class="node">
<title>module7</title>
<g id="a_node47"><a xlink:href="#ok" xlink:title="{&#39;$gn&#39;,module,7}">
<polygon fill="none" stroke="purple" points="514.76,-108 458.76,-108 458.76,-72 514.76,-72 514.76,-108"/>
<text text-anchor="middle" x="486.76" y="-85.6" font-family="Times,serif" font-size="18.00">json2</text>
</a>
</g>
</g>
<!-- module6 -->
<g id="node48" class="node">
<title>module6</title>
<g id="a_node48"><a xlink:href="#ok" xlink:title="{&#39;$gn&#39;,module,6}">
<polygon fill="none" stroke="purple" points="606.76,-108 532.76,-108 532.76,-72 606.76,-72 606.76,-108"/>
<text text-anchor="middle" x="569.76" y="-85.6" font-family="Times,serif" font-size="18.00">unicode</text>
</a>
</g>
</g>
<!-- module5 -->
<g id="node49" class="node">
<title>module5</title>
<g id="a_node49"><a xlink:href="#ok" xlink:title="{&#39;$gn&#39;,module,5}">
<polygon fill="none" stroke="purple" points="102.26,-108 17.26,-108 17.26,-72 102.26,-72 102.26,-108"/>
<text text-anchor="middle" x="59.76" y="-85.6" font-family="Times,serif" font-size="18.00">yaws_api</text>
</a>
</g>
</g>
<!-- module4 -->
<g id="node50" class="node">
<title>module4</title>
<g id="a_node50"><a xlink:href="#ok" xlink:title="{&#39;$gn&#39;,module,4}">
<polygon fill="none" stroke="purple" points="174.76,-108 120.76,-108 120.76,-72 174.76,-72 174.76,-108"/>
<text text-anchor="middle" x="147.76" y="-85.6" font-family="Times,serif" font-size="18.00">io</text>
</a>
</g>
</g>
<!-- module3 -->
<g id="node51" class="node">
<title>module3</title>
<g id="a_node51"><a xlink:href="#ok" xlink:title="{&#39;$gn&#39;,module,3}">
<polygon fill="none" stroke="purple" points="342.76,-108 192.76,-108 192.76,-72 342.76,-72 342.76,-108"/>
<text text-anchor="middle" x="267.76" y="-85.6" font-family="Times,serif" font-size="18.00">referl_vsc_session</text>
</a>
</g>
</g>
<!-- module2&#45;&gt;module10 -->
<g id="edge63" class="edge">
<title>module2&#45;&gt;module10</title>
<g id="a_edge63"><a xlink:title="modcall">
<path fill="none" stroke="black" stroke-dasharray="5,2" d="M544.92,-143.97C578.89,-134.01 621.94,-121.41 657.51,-110.99"/>
<polygon fill="black" stroke="black" points="658.72,-114.28 667.33,-108.11 656.75,-107.56 658.72,-114.28"/>
</a>
</g>
</g>
<!-- module2&#45;&gt;module9 -->
<g id="edge62" class="edge">
<title>module2&#45;&gt;module9</title>
<g id="a_edge62"><a xlink:title="modcall">
<path fill="none" stroke="black" stroke-dasharray="5,2" d="M465.5,-143.7C454.67,-134.88 441.34,-124.03 429.6,-114.47"/>
<polygon fill="black" stroke="black" points="431.73,-111.7 421.77,-108.1 427.32,-117.13 431.73,-111.7"/>
</a>
</g>
</g>
<!-- module2&#45;&gt;module8 -->
<g id="edge57" class="edge">
<title>module2&#45;&gt;module8</title>
<g id="a_edge57"><a xlink:title="modcall">
<path fill="none" stroke="black" stroke-dasharray="5,2" d="M540.72,-143.89C564.71,-135.03 592.68,-122.92 615.76,-108 635.29,-95.37 632.27,-80.91 653.76,-72 742.44,-35.22 2241.37,-21.5 2511.29,-19.32"/>
<polygon fill="black" stroke="black" points="2511.47,-22.82 2521.44,-19.24 2511.41,-15.82 2511.47,-22.82"/>
</a>
</g>
</g>
<!-- module2&#45;&gt;module7 -->
<g id="edge64" class="edge">
<title>module2&#45;&gt;module7</title>
<g id="a_edge64"><a xlink:title="modcall">
<path fill="none" stroke="black" stroke-dasharray="5,2" d="M486.76,-143.7C486.76,-135.98 486.76,-126.71 486.76,-118.11"/>
<polygon fill="black" stroke="black" points="490.26,-118.1 486.76,-108.1 483.26,-118.1 490.26,-118.1"/>
</a>
</g>
</g>
<!-- module2&#45;&gt;module6 -->
<g id="edge61" class="edge">
<title>module2&#45;&gt;module6</title>
<g id="a_edge61"><a xlink:title="modcall">
<path fill="none" stroke="black" stroke-dasharray="5,2" d="M507.27,-143.7C517.63,-134.97 530.34,-124.24 541.59,-114.75"/>
<polygon fill="black" stroke="black" points="544.09,-117.23 549.47,-108.1 539.57,-111.88 544.09,-117.23"/>
</a>
</g>
</g>
<!-- module2&#45;&gt;module5 -->
<g id="edge58" class="edge">
<title>module2&#45;&gt;module5</title>
<g id="a_edge58"><a xlink:title="modcall">
<path fill="none" stroke="black" stroke-dasharray="5,2" d="M399.19,-153.02C325.07,-145.26 216.02,-131.47 112.44,-107.92"/>
<polygon fill="black" stroke="black" points="112.97,-104.45 102.44,-105.61 111.39,-111.27 112.97,-104.45"/>
</a>
</g>
</g>
<!-- module2&#45;&gt;module4 -->
<g id="edge60" class="edge">
<title>module2&#45;&gt;module4</title>
<g id="a_edge60"><a xlink:title="modcall">
<path fill="none" stroke="black" stroke-dasharray="5,2" d="M399.07,-151.97C340.27,-144.46 261.3,-131.56 184.77,-107.87"/>
<polygon fill="black" stroke="black" points="185.56,-104.45 174.97,-104.77 183.45,-111.13 185.56,-104.45"/>
</a>
</g>
</g>
<!-- module2&#45;&gt;module3 -->
<g id="edge59" class="edge">
<title>module2&#45;&gt;module3</title>
<g id="a_edge59"><a xlink:title="modcall">
<path fill="none" stroke="black" stroke-dasharray="5,2" d="M433.46,-143.97C402.6,-134.1 363.56,-121.62 331.12,-111.25"/>
<polygon fill="black" stroke="black" points="331.88,-107.82 321.29,-108.11 329.75,-114.49 331.88,-107.82"/>
</a>
</g>
</g>
</g>
</svg>
