<svg width="243" height="213" xmlns="http://www.w3.org/2000/svg" version="1.1">
 <g id="Layer_1">
  <title>Layer 1</title>
  <metadata id="svg_15">image/svg+xml</metadata>

  <path id="svg_13" d="m38.35832,152.76845c-18.80333,-19.9249 -29.80499,-47.45125 -29.77711,-80.29402c-0.02598,-29.04522 9.10004,-54.01093 24.78891,-73.00816l-0.02535,0.00951l-32.97584,0l0,153.29584l37.96594,0l0.02345,-0.00301l0,0l0,-0.00017z"/>
  <path id="svg_12" d="m212.02769,152.78113c8.10011,-8.67548 15.35809,-18.89267 21.93489,-30.57743l-36.49901,-18.24951c-12.81836,20.83929 -31.56404,40.02091 -57.48593,40.14892c-37.72641,-0.12801 -52.54906,-32.38779 -52.46733,-73.9105l140.97742,0c0.1882,-4.68784 0.1882,-6.86764 0,-9.12411c0.92007,-24.70336 -5.62694,-45.46788 -17.53664,-61.63833l-0.06149,0.04625l31.74147,0l0,153.29585l-30.67249,0l0.06911,0.00899l0,0l0,-0.00012z"/>
  <path id="svg_11" d="m89.79214,34.60607c1.56071,-18.79952 16.38273,-31.44237 33.76158,-31.48039c17.49734,0.03802 30.13956,12.68087 30.56791,31.48039l-64.32949,0l0,0z"/>
  <g id="svg_3">
   <path id="svg_9" d="m20.44402,179.72073l0,-6.38669l-19.61822,0l0,37.86772l19.61822,0l0,-6.38795l-12.31842,0l0,-10.03661l11.86155,0l0,-6.38731l-11.86155,0l0,-8.66916l12.31842,0l0,0z"/>
   <path id="svg_8" d="m53.74936,195.2328c4.89062,-0.72617 7.57608,-5.57243 7.75604,-10.49345c-0.17996,-8.05069 -5.39881,-11.38187 -12.77465,-11.40594l-10.03723,0l0,37.86772l7.29981,0l0,-15.05585l9.12475,15.05585l9.12475,0l-10.49347,-15.96832l0,0zm-7.75667,-15.96768l0.91248,0c3.98257,0.14955 6.97156,1.05821 6.84356,5.93109c0.128,4.4648 -2.7596,5.67635 -6.84356,5.47485l-0.91248,0l0,-11.40594l0,0z"/>
   <path id="svg_7" d="m87.05408,173.33403l-7.29917,0l0,37.86772l17.79263,0l0,-6.38795l-10.49346,0l0,-31.47977l0,0z"/>
   <path id="svg_6" d="m134.95901,203.44508l3.19365,7.75604l7.75604,0l-14.14336,-38.7802l-5.93108,0l-15.05584,38.7802l7.75541,0l3.19431,-7.75604l13.23087,0l0,0zm-1.82495,-5.93047l-9.12475,0l4.10613,-14.14336l5.01862,14.14336l0,0z"/>
   <path id="svg_5" d="m159.59648,211.20177l7.7554,0l0,-25.54932l20.0751,26.46115l5.47421,0l0,-38.77956l-7.7554,0l0,25.54932l-20.0751,-26.46243l-5.47421,0l0,38.78084l0,0z"/>
   <path id="svg_4" d="m224.83846,191.12668l0,5.93109l8.21228,0c-0.1711,4.76642 -4.07191,8.80475 -8.66852,8.66852c-7.25925,0.13623 -10.85655,-6.87906 -10.94971,-13.2309c0.0932,-6.26692 3.63977,-13.58574 10.94971,-13.68713c3.8362,0.10075 7.07928,2.72539 8.66852,5.93109l6.38733,-3.19366c-2.80902,-5.91714 -8.48349,-9.19826 -15.05583,-9.12476c-11.31281,-0.07291 -18.55746,9.2648 -18.70575,20.07446c0.14828,10.54036 7.19081,19.92871 18.24951,20.07445c11.94328,-0.14574 17.46565,-9.68555 17.33702,-20.5307l0,-0.91246l-16.42456,0l0,0l0,0z"/>
  </g>
 </g>

</svg>