<svg xmlns="http://www.w3.org/2000/svg" width="500" height="488.75" viewBox="0 0 500 488.75">
  <g>
    <path d="M16.23,487.88V435H39.67q7.08,0,10.75,1.43a11.75,11.75,0,0,1,5.88,5,15,15,0,0,1,2.2,8,13.31,13.31,0,0,1-3.64,9.49q-3.64,3.85-11.26,4.9a17.79,17.79,0,0,1,4.22,2.64,36.14,36.14,0,0,1,5.81,7l9.2,14.39H54l-7-11Q44,472.13,42,469.59a15.91,15.91,0,0,0-3.55-3.53,10.79,10.79,0,0,0-3.19-1.41,21.06,21.06,0,0,0-3.9-.25H23.23v23.48Zm7-29.54h15a22.6,22.6,0,0,0,7.5-1,8,8,0,0,0,4.11-3.18,8.54,8.54,0,0,0,1.41-4.74,7.87,7.87,0,0,0-2.73-6.17q-2.72-2.42-8.6-2.41H23.23Z"/>
    <path d="M104.83,475.54l6.71.84a16.39,16.39,0,0,1-5.88,9.12,17.68,17.68,0,0,1-11,3.25q-8.42,0-13.33-5.18t-4.92-14.52q0-9.66,5-15a16.86,16.86,0,0,1,12.92-5.34,16.37,16.37,0,0,1,12.55,5.23q4.86,5.24,4.87,14.72c0,.38,0,1,0,1.73H83.15q.36,6.32,3.58,9.66a10.6,10.6,0,0,0,8,3.36,10,10,0,0,0,6.1-1.88A12.39,12.39,0,0,0,104.83,475.54ZM83.52,465.05H104.9q-.42-4.83-2.45-7.25a10,10,0,0,0-8-3.75,10.33,10.33,0,0,0-7.52,3A11.85,11.85,0,0,0,83.52,465.05Z"/>
    <path d="M131.22,487.88V454.62h-5.74v-5h5.74V445.5a17.83,17.83,0,0,1,.68-5.74,8.38,8.38,0,0,1,3.3-4.09,11.87,11.87,0,0,1,6.62-1.57,32,32,0,0,1,6.06.65l-1,5.66a21.86,21.86,0,0,0-3.83-.36c-2,0-3.36.42-4.18,1.26s-1.23,2.42-1.23,4.73v3.54h7.47v5h-7.47v33.26Z"/>
    <path d="M185.16,483.16a24.2,24.2,0,0,1-6.95,4.32,19.86,19.86,0,0,1-7.16,1.27q-6.3,0-9.7-3.09a10.17,10.17,0,0,1-3.39-7.88,10.65,10.65,0,0,1,4.64-8.87,15.68,15.68,0,0,1,4.67-2.13,45,45,0,0,1,5.77-1,59.43,59.43,0,0,0,11.58-2.24c0-.89,0-1.45,0-1.69,0-2.65-.61-4.51-1.84-5.6-1.66-1.46-4.12-2.2-7.39-2.2q-4.59,0-6.76,1.61t-3.23,5.68l-6.35-.87a15.82,15.82,0,0,1,2.85-6.58,12.46,12.46,0,0,1,5.73-3.86,25.64,25.64,0,0,1,8.7-1.35,23,23,0,0,1,8,1.15,10.56,10.56,0,0,1,4.51,2.91,10.26,10.26,0,0,1,2,4.42,37.36,37.36,0,0,1,.32,6v8.66a90.67,90.67,0,0,0,.42,11.45,14.26,14.26,0,0,0,1.64,4.6h-6.78A13.58,13.58,0,0,1,185.16,483.16Zm-.54-14.5A47.59,47.59,0,0,1,174,471.11a24.32,24.32,0,0,0-5.66,1.3,5.59,5.59,0,0,0-2.56,2.11,5.75,5.75,0,0,0,1.06,7.41,8.49,8.49,0,0,0,5.76,1.73,13.43,13.43,0,0,0,6.67-1.64,10,10,0,0,0,4.29-4.49,15.63,15.63,0,0,0,1.05-6.49Z"/>
    <path d="M236.21,473.85l6.39.83A16.54,16.54,0,0,1,237.24,485a15.59,15.59,0,0,1-10.58,3.74q-7.87,0-12.65-5.14t-4.78-14.74A26.65,26.65,0,0,1,211.29,458a14.3,14.3,0,0,1,6.26-7,18.47,18.47,0,0,1,9.14-2.33,15.88,15.88,0,0,1,10.21,3.16,14.45,14.45,0,0,1,5.08,9l-6.31,1a10.41,10.41,0,0,0-3.19-5.8,8.26,8.26,0,0,0-5.54-1.95,10.09,10.09,0,0,0-8,3.51q-3.06,3.53-3.06,11.13t3,11.22a9.65,9.65,0,0,0,7.72,3.5,9.09,9.09,0,0,0,6.39-2.35C234.67,479.5,235.76,477.1,236.21,473.85Z"/>
    <path d="M272.3,482.07l.94,5.74a24.45,24.45,0,0,1-4.91.58,11.17,11.17,0,0,1-5.48-1.12,6.3,6.3,0,0,1-2.74-2.94c-.53-1.22-.79-3.77-.79-7.67v-22h-4.77v-5h4.77v-9.49l6.45-3.9v13.39h6.53v5h-6.53V477a11.11,11.11,0,0,0,.35,3.57,2.73,2.73,0,0,0,1.11,1.27,4.36,4.36,0,0,0,2.22.47A21.11,21.11,0,0,0,272.3,482.07Z"/>
    <path d="M286.21,468.73q0-10.65,5.91-15.76a17.83,17.83,0,0,1,12.05-4.26,17.18,17.18,0,0,1,12.91,5.17q5,5.19,5,14.31,0,7.4-2.21,11.63a15.64,15.64,0,0,1-6.46,6.58,18.85,18.85,0,0,1-9.25,2.35q-8,0-13-5.16T286.21,468.73Zm6.67,0q0,7.35,3.21,11a10.69,10.69,0,0,0,16.12,0q3.21-3.68,3.21-11.22,0-7.11-3.23-10.76a10.68,10.68,0,0,0-16.1,0Q292.88,461.38,292.88,468.73Z"/>
    <path d="M339.61,487.88v-38.3h5.84v5.8c1.49-2.71,2.87-4.51,4.13-5.37a7.17,7.17,0,0,1,4.17-1.3,12.71,12.71,0,0,1,6.67,2.09l-2.24,6a9.27,9.27,0,0,0-4.76-1.41,6.19,6.19,0,0,0-3.82,1.28,6.93,6.93,0,0,0-2.42,3.55,25.34,25.34,0,0,0-1.08,7.58v20.05Z"/>
    <path d="M375.22,487.88V435h38.24v6.24H382.22v16.2h29.25v6.2H382.22v18h32.46v6.24Z"/>
    <path d="M433.42,487.88v-38.3h5.84v5.8c1.49-2.71,2.87-4.51,4.13-5.37a7.22,7.22,0,0,1,4.17-1.3,12.69,12.69,0,0,1,6.67,2.09l-2.23,6a9.3,9.3,0,0,0-4.76-1.41,6.22,6.22,0,0,0-3.83,1.28,6.92,6.92,0,0,0-2.41,3.55,25,25,0,0,0-1.09,7.58v20.05Z"/>
    <path d="M467.92,487.88V435h6.49v52.88Z"/>
  </g>
  <g>
    <path d="M284.65,161.57a33.66,33.66,0,0,0,20.66-12.92,38,38,0,0,0,8-23.86q0-19.94-12.64-30.6T253.17,83.52H197.23v83.66h53.69Q259.64,167.18,284.65,161.57Z"/>
    <path d="M197.23,411h133L262.73,286.23q-12.93-24.44-23.05-31.73a53.53,53.53,0,0,0-31.2-9.55H197.23Z"/>
    <path d="M0,0V411H69.34V.41H281.56q59,0,90.23,10.11T422.11,48q19.11,27.38,19.11,66.68,0,34.26-14.62,59.1a114.2,114.2,0,0,1-40.22,40.29q-16.32,9.83-44.72,16.28,22.74,7.6,33.14,15.18,7,5.06,20.37,21.64T413,292.74L474.16,411H500V0Z"/>
  </g>
</svg>
