<svg width="500" height="488.75" xmlns="http://www.w3.org/2000/svg" version="1.1">

 <g  id="Layer_1">
  <title>Layer 1</title>
  <metadata id="svg_15">image/svg+xml</metadata>
  
  <rect id="svg_1" height="411.01" width="500"/>
  <path id="svg_2" fill="#fff" d="m69.34,412l0,-411.59l212.22,0q59,0 90.23001,10.11t50.31998,37.48q19.11002,27.38 19.11002,66.68q0,34.26 -14.62003,59.1a114.2,114.2 0 0 1 -40.22,40.29001q-16.31998,9.82999 -44.72,16.28q22.74002,7.59999 33.14001,15.17999q7,5.06 20.37,21.64001t17.83002,25.56998l61.67001,119.26001l-143.88,0l-68.06,-125.76999q-12.93001,-24.44 -23.05,-31.73a53.53,53.53 0 0 0 -31.2,-9.55l-11.25002,0l0,167.04999l-127.89,0zm127.89,-244.82001l53.68999,0q8.72,0 33.73001,-5.61a33.66,33.66 0 0 0 20.66,-12.92a38,38 0 0 0 8,-23.86q0,-19.94 -12.64001,-30.60001t-47.49998,-10.66999l-55.94,0l0,83.66z"/>
  <g id="svg_3">
   <path id="svg_4" d="m16.23,487.88l0,-52.88l23.44,0q7.08,0 10.75,1.42999a11.75,11.75 0 0 1 5.88,5a15,15 0 0 1 2.2,8a13.31,13.31 0 0 1 -3.64,9.49002q-3.64,3.84998 -11.26,4.89999a17.79,17.79 0 0 1 4.22,2.63998a36.14,36.14 0 0 1 5.81,7l9.2,14.39001l-8.83,0l-7,-11q-3,-4.72 -5,-7.26001a15.91,15.91 0 0 0 -3.55,-3.53a10.79,10.79 0 0 0 -3.19,-1.41a21.06,21.06 0 0 0 -3.9,-0.25l-8.13,0l0,23.48001l-7,0zm7,-29.54001l15,0a22.6,22.6 0 0 0 7.5,-1a8,8 0 0 0 4.11,-3.17999a8.54,8.54 0 0 0 1.41,-4.73999a7.87,7.87 0 0 0 -2.73,-6.17001q-2.72,-2.42001 -8.6,-2.41l-16.69,0l0,17.5z"/>
   <path id="svg_5" d="m104.83,475.54001l6.71,0.84a16.39,16.39 0 0 1 -5.88,9.12a17.68,17.68 0 0 1 -11,3.25q-8.42001,0 -13.33,-5.17999t-4.92,-14.51999q0,-9.66 5,-15a16.86,16.86 0 0 1 12.92,-5.34a16.37,16.37 0 0 1 12.55,5.22998q4.86,5.24002 4.87,14.72c0,0.38 0,1 0,1.73001l-28.6,0q0.36,6.32001 3.58,9.66a10.6,10.6 0 0 0 8,3.35999a10,10 0 0 0 6.1,-1.88a12.39,12.39 0 0 0 4,-5.98999zm-21.31001,-10.49002l21.38,0q-0.42,-4.82999 -2.45,-7.25a10,10 0 0 0 -8,-3.75a10.33,10.33 0 0 0 -7.52,3a11.85,11.85 0 0 0 -3.41,8z"/>
   <path id="svg_6" d="m131.22,487.88l0,-33.26001l-5.74,0l0,-5l5.74,0l0,-4.12a17.83,17.83 0 0 1 0.67999,-5.73999a8.38,8.38 0 0 1 3.3,-4.09a11.87,11.87 0 0 1 6.62001,-1.57001a32,32 0 0 1 6.06,0.64999l-1,5.66a21.86,21.86 0 0 0 -3.83,-0.36002c-2,0 -3.36,0.42001 -4.18001,1.26001s-1.23,2.42001 -1.23,4.73001l0,3.53998l7.47,0l0,5l-7.47,0l0,33.26001l-6.42,0.04001z"/>
   <path id="svg_7" d="m185.16,483.16a24.2,24.2 0 0 1 -6.95,4.32001a19.86,19.86 0 0 1 -7.16,1.26999q-6.3,0 -9.7,-3.09a10.17,10.17 0 0 1 -3.39,-7.88a10.65,10.65 0 0 1 4.64,-8.87a15.68,15.68 0 0 1 4.67,-2.13a45,45 0 0 1 5.76999,-1a59.43,59.43 0 0 0 11.58,-2.23999c0,-0.89001 0,-1.45001 0,-1.69c0,-2.64999 -0.61,-4.51001 -1.84,-5.60001c-1.66,-1.45999 -4.12,-2.20001 -7.39,-2.20001q-4.59,0 -6.75999,1.61002t-3.23001,5.67999l-6.34999,-0.87a15.82,15.82 0 0 1 2.84999,-6.57999a12.46,12.46 0 0 1 5.73001,-3.86002a25.64,25.64 0 0 1 8.7,-1.35001a23,23 0 0 1 8,1.14999a10.56,10.56 0 0 1 4.50999,2.91a10.26,10.26 0 0 1 2,4.42001a37.36,37.36 0 0 1 0.32001,6l0,8.66a90.67,90.67 0 0 0 0.42,11.44998a14.26,14.26 0 0 0 1.64,4.60001l-6.78,0a13.58,13.58 0 0 1 -1.28,-4.70999zm-0.54001,-14.5a47.59,47.59 0 0 1 -10.62,2.44998a24.32,24.32 0 0 0 -5.66,1.30002a5.59,5.59 0 0 0 -2.56,2.10999a5.75,5.75 0 0 0 1.06,7.41a8.49,8.49 0 0 0 5.76001,1.73001a13.43,13.43 0 0 0 6.67,-1.64001a10,10 0 0 0 4.28999,-4.48999a15.63,15.63 0 0 0 1.05,-6.49002l0.00999,-2.37997z"/>
   <path id="svg_8" d="m236.21001,473.85001l6.39,0.83002a16.54,16.54 0 0 1 -5.36,10.31998a15.59,15.59 0 0 1 -10.58,3.73999q-7.87,0 -12.64999,-5.13998t-4.78,-14.74002a26.65,26.65 0 0 1 2.05998,-10.85999a14.3,14.3 0 0 1 6.25999,-7a18.47,18.47 0 0 1 9.14,-2.32999a15.88,15.88 0 0 1 10.21001,3.15997a14.45,14.45 0 0 1 5.08,9l-6.31001,1a10.41,10.41 0 0 0 -3.18999,-5.79999a8.26,8.26 0 0 0 -5.54001,-1.95001a10.09,10.09 0 0 0 -8,3.51001q-3.06,3.53 -3.06,11.13t3,11.22a9.65,9.65 0 0 0 7.72,3.5a9.09,9.09 0 0 0 6.39,-2.35001c1.68001,-1.59 2.77,-3.98999 3.22002,-7.23999z"/>
   <path id="svg_9" d="m272.29999,482.07001l0.94,5.73999a24.45,24.45 0 0 1 -4.91,0.58002a11.17,11.17 0 0 1 -5.48001,-1.12a6.3,6.3 0 0 1 -2.73999,-2.94c-0.53,-1.22 -0.79001,-3.77002 -0.79001,-7.67001l0,-22l-4.76999,0l0,-5l4.76999,0l0,-9.48999l6.45001,-3.89999l0,13.38998l6.53,0l0,5l-6.53,0l0,22.34a11.11,11.11 0 0 0 0.35001,3.57001a2.73,2.73 0 0 0 1.10999,1.26999a4.36,4.36 0 0 0 2.22,0.47a21.11,21.11 0 0 0 2.85001,-0.23999z"/>
   <path id="svg_10" d="m286.20999,468.73001q0,-10.64999 5.91,-15.76001a17.83,17.83 0 0 1 12.04999,-4.25998a17.18,17.18 0 0 1 12.91,5.16998q5,5.19 5,14.31q0,7.39999 -2.20999,11.63a15.64,15.64 0 0 1 -6.45999,6.58002a18.85,18.85 0 0 1 -9.25,2.34998q-8,0 -13,-5.16t-4.95001,-14.85999zm6.67001,0q0,7.35001 3.20999,11a10.69,10.69 0 0 0 16.12,0q3.20999,-3.67999 3.20999,-11.22q0,-7.10999 -3.22998,-10.76001a10.68,10.68 0 0 0 -16.10001,0q-3.20999,3.63 -3.20999,10.98001z"/>
   <path id="svg_11" d="m339.60999,487.88l0,-38.29999l5.84,0l0,5.79999c1.49002,-2.70999 2.87,-4.51001 4.13,-5.37a7.17,7.17 0 0 1 4.17001,-1.29999a12.71,12.71 0 0 1 6.66998,2.09l-2.23999,6a9.27,9.27 0 0 0 -4.76001,-1.41a6.19,6.19 0 0 0 -3.82001,1.28a6.93,6.93 0 0 0 -2.41998,3.54999a25.34,25.34 0 0 0 -1.08002,7.58002l0,20.04999l-6.48999,0.03z"/>
   <path id="svg_12" d="m375.22,487.88l0,-52.88l38.23999,0l0,6.23999l-31.23999,0l0,16.20001l29.25,0l0,6.20001l-29.25,0l0,18l32.45999,0l0,6.23999l-39.45999,0z"/>
   <path id="svg_13" d="m433.42001,487.88l0,-38.29999l5.84,0l0,5.79999c1.48999,-2.70999 2.87,-4.51001 4.13,-5.37a7.22,7.22 0 0 1 4.16998,-1.29999a12.69,12.69 0 0 1 6.67001,2.09l-2.23001,6a9.3,9.3 0 0 0 -4.75998,-1.41a6.22,6.22 0 0 0 -3.83002,1.28a6.92,6.92 0 0 0 -2.41,3.54999a25,25 0 0 0 -1.09,7.58002l0,20.04999l-6.48999,0.03z"/>
   <path id="svg_14" d="m467.92001,487.88l0,-52.88l6.48999,0l0,52.88l-6.48999,0z"/>
  </g>
 </g>
</svg>